<svg xmlns="http://www.w3.org/2000/svg" xmlns:xlink="http://www.w3.org/1999/xlink">
    <!-- logo -->
    <symbol id="logo" viewBox="0 0 202 32">
          <g id="グループ_416" data-name="グループ 416" transform="translate(-2582 84)"><text id="To_Do_List" data-name="To Do List" transform="translate(2634 -59)" fill="#1f1f1f" font-size="26" font-family="Corbel-Bold, Corbel" font-weight="700" letter-spacing="0.16em"><tspan x="0" y="0">To Do List</tspan></text><g id="日めくりカレンダーアイコン" transform="translate(2582 -135.057)"><path id="パス_35" data-name="パス 35" d="M20.077,51.057C16.229,53.918,7.128,62.178.3,62.178c-.449,0-.268.326-.268.326L6,65l-3.627,3.59v5.94L21.7,82.605l17.706-17.53v-5.94ZM5.272,62.862a32.538,32.538,0,0,0,6.085-3.17c.494-.318.98-.648,1.462-.98.106-.073.211-.145.316-.219q.7-.489,1.377-.985l.155-.115q.656-.484,1.284-.964l.169-.129q.694-.532,1.347-1.046l15.746,6.581c-4.151,3.161-9.485,6.733-13.576,6.733a6.038,6.038,0,0,1-.848-.058l-9.8-4.1-1.688-.7ZM7.688,65.7l10.634,4.445a7.566,7.566,0,0,0,1.314.111c4.279,0,9.454-3.249,13.668-6.376L21.213,75.851,4.494,68.864Zm30.03-1.33-16.4,16.241L4.062,73.4V72l17.361,7.255,16.3-16.133Zm0-2.251L21.26,78.414l-17.2-7.187v-1.5l17.373,7.26L37.718,60.87Z" fill="#1f1f1f"/><path id="パス_36" data-name="パス 36" d="M194.046,168.857a.207.207,0,0,0,.207-.024l1.57-.7a2.9,2.9,0,0,0,.508-.293l5.055-3.658c.062-.045.062-.1,0-.127l-1.153-.572a.487.487,0,0,0-.248-.047l-2.024.032a.367.367,0,0,0-.217.07l-1.285.93c-.083.06-.052.1.051.1l1.879,0,.02.01-3.546,2.566-2.054.981c-.062.045-.062.1,0,.126Z" transform="translate(-177.927 -103.723)" fill="#1f1f1f"/></g>
    </symbol>
</svg>
